<svg width="225" height="490" viewBox="0 0 225 490" fill="none" xmlns="http://www.w3.org/2000/svg">
<path d="M200.678 286.234L199.769 362.415" stroke="#0F89CE" stroke-width="8"/>
<path d="M175.458 284.265L174.549 358.841" stroke="#0F89CE" stroke-width="8"/>
<path d="M11.0298 275.789V356.35" stroke="#0F89CE" stroke-width="4"/>
<path d="M88.1309 219.453V210.013L105.618 198.87M105.618 198.87L142.915 205.06V216.864L105.618 209.239V198.87Z" stroke="#0F89CE" stroke-width="3.22519"/>
<path d="M115.931 0.597347V21.5168" stroke="#0F89CE" stroke-width="3.22519"/>
<path d="M106.896 103.425L115.948 21.036L124.397 103.425C124.397 103.425 119.395 101.424 116.031 101.358C112.374 101.286 106.896 103.425 106.896 103.425Z" stroke="#0F89CE" stroke-width="3.22519"/>
<path d="M107.216 103.574L102.672 108.293V144.767L105.891 143.257L128.19 146.046V108.293L124.869 103.574" stroke="#0F89CE" stroke-width="3.22519"/>
<path d="M144.639 220.191L57.13 247.146L51.2295 250.709L213.162 271.212L144.639 220.191Z" stroke="#0F89CE" stroke-width="4"/>
<path d="M205.884 271.339V287.047L52.6038 267.273L11.0298 295.091V276.381L56.8641 247.212" stroke="#0F89CE" stroke-width="4"/>
<path d="M98.2637 271.604L96.5874 358.841" stroke="#0F89CE" stroke-width="8"/>
<path d="M72.2769 271.604L70.6006 358.841" stroke="#0F89CE" stroke-width="8"/>
<path d="M52.7559 249.758L51.1597 355.898" stroke="#0F89CE" stroke-width="4"/>
<path d="M124.25 275.628L122.574 358.841" stroke="#0F89CE" stroke-width="8"/>
<path d="M150.238 280.242L148.562 358.841" stroke="#0F89CE" stroke-width="8"/>
<path d="M11.04 354.234L50.4325 356.625L203.76 360.51" stroke="#0F89CE" stroke-width="4"/>
<path d="M80.8071 239.51V225.142L105.419 209.401M105.419 209.401L140.687 216.564M105.419 209.401V231.889" stroke="#0F89CE" stroke-width="3.22519"/>
<path d="M91.0562 207.438V153.027L106.03 143.113M106.03 143.113V198.855L140.362 204.698V148.156L106.03 143.113Z" stroke="#0F89CE" stroke-width="3.22519"/>
<path d="M131.47 166.74V194.353L114.307 191.749V166.74C114.307 161.363 119.197 157.31 124.481 158.308C128.535 159.074 131.47 162.615 131.47 166.74Z" stroke="#0F89CE" stroke-width="3"/>
<path d="M120.401 119.53V135.815L111.018 134.391V119.53C111.018 116.59 113.691 114.375 116.58 114.92C118.796 115.339 120.401 117.275 120.401 119.53Z" stroke="#0F89CE" stroke-width="3"/>
<circle cx="142.099" cy="245.613" r="7.86265" transform="rotate(9 142.099 245.613)" stroke="#0F89CE" stroke-width="3"/>
<path d="M72.5336 395.417V435.415H62.2401V424.827L62.8283 412.004L54.7112 425.709H46.7118L38.4182 411.71L39.1829 424.827V435.415H28.8895V395.417H38.8888L50.7115 415.004L62.5342 395.417H72.5336ZM110.23 428.062V435.415H83.1137V395.417H109.053V402.77H93.7013V410.593H106.7V417.945H93.7013V428.062H110.23ZM140.615 426.18H127.086L124.087 435.415H113.44L128.792 394.888H139.027L154.437 435.415H143.674L140.615 426.18ZM138.262 418.945L133.851 405.652L129.498 418.945H138.262ZM176.614 395.417C181.124 395.417 184.967 396.28 188.143 398.005C191.319 399.731 193.711 402.103 195.319 405.123C196.966 408.142 197.789 411.554 197.789 415.357C197.789 419.239 196.966 422.71 195.319 425.768C193.711 428.788 191.319 431.16 188.143 432.885C184.967 434.572 181.124 435.415 176.614 435.415H160.027V395.417H176.614ZM176.614 427.945C179.947 427.945 182.535 426.807 184.378 424.533C186.261 422.259 187.202 419.22 187.202 415.416C187.202 411.652 186.261 408.632 184.378 406.358C182.535 404.044 179.947 402.887 176.614 402.887H170.615V427.945H176.614Z" fill="black"/>
<path d="M18.191 457.33V473.415H16.0385V467.809L16.1568 460.854L11.2131 468.234H9.72287L4.73188 460.783L4.87381 467.809V473.415H2.72129V457.33H4.66092L10.4561 465.94L16.2514 457.33H18.191ZM33.3284 471.783V473.415H23.4647V457.33H32.8553V458.962H25.6409V464.095H31.9092V465.727H25.6409V471.783H33.3284ZM52.7711 457.33V473.415H50.6186V467.809L50.7368 460.854L45.7931 468.234H44.3029L39.312 460.783L39.4539 467.809V473.415H37.3014V457.33H39.241L45.0362 465.94L50.8314 457.33H52.7711ZM64.6206 473.793C62.9491 473.793 61.514 473.423 60.3156 472.681C59.1329 471.924 58.2419 470.907 57.6427 469.63C57.0434 468.353 56.7438 466.941 56.7438 465.396C56.7438 463.851 57.0434 462.447 57.6427 461.186C58.2419 459.908 59.1329 458.899 60.3156 458.158C61.514 457.401 62.9491 457.022 64.6206 457.022C66.2922 457.022 67.7193 457.401 68.902 458.158C70.1004 458.899 70.9993 459.908 71.5985 461.186C72.1978 462.447 72.4974 463.843 72.4974 465.372C72.4974 466.933 72.1978 468.353 71.5985 469.63C70.9993 470.907 70.1004 471.924 68.902 472.681C67.7193 473.423 66.2922 473.793 64.6206 473.793ZM64.6206 472.09C65.8191 472.09 66.8441 471.806 67.6956 471.239C68.5472 470.655 69.1937 469.859 69.6352 468.849C70.0768 467.824 70.2976 466.673 70.2976 465.396C70.2976 464.119 70.0768 462.975 69.6352 461.966C69.1937 460.957 68.5393 460.161 67.672 459.577C66.8204 458.994 65.8033 458.702 64.6206 458.702C63.4221 458.702 62.3892 458.994 61.5219 459.577C60.6704 460.161 60.0238 460.957 59.5823 461.966C59.1408 462.975 58.92 464.119 58.92 465.396C58.92 466.673 59.1408 467.824 59.5823 468.849C60.0238 469.859 60.6704 470.655 61.5219 471.239C62.3892 471.806 63.4221 472.09 64.6206 472.09ZM81.5413 466.342H78.6082V473.415H76.4321V457.33H81.8252C83.6544 457.33 85.0421 457.724 85.9883 458.513C86.9344 459.301 87.4075 460.381 87.4075 461.753C87.4075 462.904 87.1 463.851 86.485 464.592C85.87 465.317 84.9633 465.798 83.7648 466.035L89.016 473.415H86.485L81.5413 466.342ZM78.6082 464.686H81.8252C84.096 464.686 85.2314 463.732 85.2314 461.824C85.2314 460.925 84.9396 460.224 84.3562 459.719C83.7727 459.214 82.929 458.962 81.8252 458.962H78.6082V464.686ZM92.5325 457.33H94.7086V473.415H92.5325V457.33ZM108.273 468.424H101.815L99.9936 473.415H97.8175L104.062 457.117H106.073L112.341 473.415H110.118L108.273 468.424ZM107.681 466.792L105.056 459.648L102.43 466.792H107.681ZM125.288 471.783V473.415H115.424V457.33H117.6V471.783H125.288ZM141.386 473.769C139.62 473.769 138.13 473.383 136.915 472.61C135.701 471.838 134.787 470.813 134.172 469.535C133.572 468.258 133.273 466.863 133.273 465.349C133.273 463.835 133.588 462.447 134.219 461.186C134.85 459.924 135.796 458.915 137.057 458.158C138.319 457.401 139.856 457.022 141.67 457.022C142.726 457.022 143.712 457.196 144.627 457.543C145.557 457.874 146.346 458.347 146.992 458.962L146.093 460.405C145.589 459.885 144.942 459.475 144.154 459.175C143.365 458.86 142.537 458.702 141.67 458.702C140.345 458.702 139.218 458.994 138.287 459.577C137.357 460.161 136.647 460.957 136.159 461.966C135.685 462.975 135.449 464.111 135.449 465.372C135.449 466.665 135.678 467.817 136.135 468.826C136.592 469.835 137.262 470.631 138.145 471.215C139.044 471.798 140.125 472.09 141.386 472.09C143.326 472.09 145.005 471.349 146.424 469.867L147.229 471.286C146.519 472.011 145.667 472.61 144.674 473.084C143.681 473.541 142.585 473.769 141.386 473.769ZM164.008 457.33V473.415H161.832V465.727H153.151V473.415H150.974V457.33H153.151V464.071H161.832V457.33H164.008ZM177.571 468.424H171.114L169.292 473.415H167.116L173.361 457.117H175.371L181.64 473.415H179.416L177.571 468.424ZM176.98 466.792L174.354 459.648L171.729 466.792H176.98ZM190.187 457.33C192.079 457.33 193.506 457.756 194.468 458.607C195.446 459.443 195.935 460.594 195.935 462.061C195.935 463.559 195.446 464.726 194.468 465.562C193.506 466.397 192.079 466.815 190.187 466.815H186.899V473.415H184.723V457.33H190.187ZM190.187 465.159C192.568 465.159 193.759 464.127 193.759 462.061C193.759 461.083 193.451 460.326 192.836 459.79C192.221 459.238 191.338 458.962 190.187 458.962H186.899V465.159H190.187ZM209.162 471.783V473.415H199.299V457.33H208.689V458.962H201.475V464.095H207.743V465.727H201.475V471.783H209.162ZM222.999 471.783V473.415H213.135V457.33H215.312V471.783H222.999Z" fill="#0F89CE"/>
</svg>
